<?xml version="1.0" standalone="no"?><!DOCTYPE svg PUBLIC "-//W3C//DTD SVG 1.1//EN" "http://www.w3.org/Graphics/SVG/1.1/DTD/svg11.dtd"><svg t="1736321925885" class="icon" viewBox="0 0 1024 1024" version="1.1" xmlns="http://www.w3.org/2000/svg" p-id="9708" xmlns:xlink="http://www.w3.org/1999/xlink" width="200" height="200"><path d="M885.314 835.089l-329.395-329.396 329.395-329.396c12.128-12.128 12.128-31.792 0-43.919-12.127-12.128-31.792-12.128-43.919 0l-329.396 329.396-329.396-329.396c-12.128-12.128-31.792-12.128-43.919 0s-12.128 31.792 0 43.919l329.395 329.396-329.395 329.396c-12.128 12.128-12.128 31.793 0 43.919 12.128 12.128 31.792 12.128 43.919 0l329.396-329.396 329.396 329.396c12.128 12.128 31.793 12.128 43.919 0 12.128-12.127 12.128-31.792 0-43.919z" fill="#8a8a8a" p-id="9709"></path></svg>