<?xml version="1.0" standalone="no"?><!DOCTYPE svg PUBLIC "-//W3C//DTD SVG 1.1//EN" "http://www.w3.org/Graphics/SVG/1.1/DTD/svg11.dtd"><svg t="1736320556623" class="icon" viewBox="0 0 1024 1024" version="1.1" xmlns="http://www.w3.org/2000/svg" p-id="4323" xmlns:xlink="http://www.w3.org/1999/xlink" width="200" height="200"><path d="M904.85191111 321.98200889H603.53194667c14.30869333-50.35349333 21.55406222-95.10001778 21.55406222-134.49443556 0-89.38382222-81.70154667-174.98112-159.90784-163.62154666-68.95843555 10.01244445-101.87207111 68.15744-101.87207111 142.83207111v67.46567111c0 86.54392889-66.22776889 160.34474667-150.44152889 168.46392889l-133.94830222-0.21845333A76.64071111 76.64071111 0 0 0 2.27555555 479.04995555V921.6c0 42.34353778 34.29717333 76.64071111 76.64071112 76.64071111h742.04956444a116.87253333 116.87253333 0 0 0 114.83363556-95.10001778l83.88608-442.55004444A116.87253333 116.87253333 0 0 0 904.85191111 321.98200889zM75.09333333 921.6V479.04995555a3.82293333 3.82293333 0 0 1 3.82293334-3.82293333H166.11555555v450.19591111h-87.19928888A3.82293333 3.82293333 0 0 1 75.09333333 921.6z m873.04874667-474.55345778L864.256 889.59658667a44.05475555 44.05475555 0 0 1-43.29016889 35.82634666H238.93333333V472.02304a242.70165333 242.70165333 0 0 0 197.19054222-237.89568v-67.42926222c0-42.74403555 13.72615111-67.02876445 39.50364445-70.74247111 30.76551111-4.47829333 76.64071111 43.61784889 76.64071111 91.56835555 0 42.45276445-10.81344 95.57333333-32.84081778 158.96120889a36.40888889 36.40888889 0 0 0 34.4064 48.35100444H904.85191111a44.05475555 44.05475555 0 0 1 43.29016889 52.21034667z" fill="#8a8a8a" p-id="4324"></path></svg>