<?xml version="1.0" standalone="no"?><!DOCTYPE svg PUBLIC "-//W3C//DTD SVG 1.1//EN" "http://www.w3.org/Graphics/SVG/1.1/DTD/svg11.dtd"><svg t="1736323423078" class="icon" viewBox="0 0 1024 1024" version="1.1" xmlns="http://www.w3.org/2000/svg" p-id="21281" xmlns:xlink="http://www.w3.org/1999/xlink" width="200" height="200"><path d="M989.86666667 409.6V170.66666667l-77.9264 77.9264a477.55946667 477.55946667 0 0 0-398.50666667-214.49386667C249.51466667 34.0992 35.5328 248.04693333 35.5328 512S249.51466667 989.9008 513.4336 989.9008a477.93493333 477.93493333 0 0 0 442.91413333-298.12053333 40.92586667 40.92586667 0 1 0-75.8784-30.8224 396.11733333 396.11733333 0 0 1-367.03573333 247.02293333c-218.69226667 0-395.9808-177.28853333-395.9808-395.9808S294.74133333 116.0192 513.4336 116.0192c141.27786667 0 268.73173333 74.752 339.21706667 191.82933333L750.93333333 409.6h238.93333334z" fill="#8a8a8a" p-id="21282"></path></svg>