<?xml version="1.0" standalone="no"?><!DOCTYPE svg PUBLIC "-//W3C//DTD SVG 1.1//EN" "http://www.w3.org/Graphics/SVG/1.1/DTD/svg11.dtd"><svg t="1736915450557" class="icon" viewBox="0 0 1024 1024" version="1.1" xmlns="http://www.w3.org/2000/svg" p-id="11861" xmlns:xlink="http://www.w3.org/1999/xlink" width="200" height="200"><path d="M369.493333 718.08H159.146667c-35.413333 0-64-28.586667-64-64V394.24c0-35.413333 28.586667-64 64-64h210.346666v387.84z" p-id="11862" fill="#8a8a8a"></path><path d="M212.266667 377.173333L480.426667 162.56c20.906667-16.853333 52.053333-1.92 52.053333 24.96v661.12c0 28.586667-33.066667 44.586667-55.466667 26.666667L208.426667 660.266667l3.84-283.093334zM854.4 517.76c0 85.12-28.8 163.626667-77.013333 226.346667l54.186666 50.56c6.186667-7.04 4.693333 10.666667 10.453334 3.2C902.4 720.64 938.666667 623.573333 938.666667 517.76c0-106.026667-36.48-203.093333-97.066667-280.533333-5.546667-7.253333-69.973333 46.933333-66.56 51.2 49.493333 63.146667 79.36 142.72 79.36 229.333333zM673.066667 517.76c0 40.32-13.653333 77.226667-36.266667 107.093333 0 0 64.426667 49.493333 67.626667 45.013334 31.146667-42.666667 49.493333-95.146667 49.493333-152.106667 0-58.026667-19.2-111.573333-51.413333-154.666667-2.56-3.626667-65.706667 47.573333-65.706667 47.573334a176.64 176.64 0 0 1 36.266667 107.093333z" p-id="11863" fill="#8a8a8a"></path><path d="M672 389.546667m-40.96 0a40.96 40.96 0 1 0 81.92 0 40.96 40.96 0 1 0-81.92 0Z" p-id="11864" fill="#8a8a8a"></path><path d="M672 645.973333m-40.96 0a40.96 40.96 0 1 0 81.92 0 40.96 40.96 0 1 0-81.92 0Z" p-id="11865" fill="#8a8a8a"></path><path d="M809.813333 771.626667m-41.813333 0a41.813333 41.813333 0 1 0 83.626667 0 41.813333 41.813333 0 1 0-83.626667 0Z" p-id="11866" fill="#8a8a8a"></path><path d="M809.813333 263.893333m-41.813333 0a41.813333 41.813333 0 1 0 83.626667 0 41.813333 41.813333 0 1 0-83.626667 0Z" p-id="11867" fill="#8a8a8a"></path></svg>